<svg xmlns="http://www.w3.org/2000/svg" width="14" height="14" fill="none" xmlns:v="https://vecta.io/nano"><g clip-path="url(#A)" fill="#fff"><path d="M6.554 10.813c-1.858 0-3.362-1.506-3.362-3.362s1.506-3.362 3.362-3.362 3.362 1.506 3.362 3.362-1.506 3.362-3.362 3.362zm0-5.544a2.182 2.182 0 1 0 0 4.365 2.183 2.183 0 1 0 0-4.365zm2.7 8.69H3.855c-1.06-.05-1.996-.306-2.75-1.06C-.154 11.639.007 9.941.007 7.45c0-2.549-.142-4.207 1.099-5.448C2.371.738 4.093.903 6.554.903c2.525 0 3.396-.002 4.289.344 1.214.471 2.13 1.556 2.219 3.505v5.398c-.108 2.3-1.343 3.695-3.809 3.809zm1.908-11.123c-.826-.826-1.972-.752-4.623-.752-2.73 0-3.825-.04-4.623.761-.92.916-.753 2.386-.753 4.615 0 3.017-.31 5.189 2.718 5.344l2.651.033.025-.016c2.91 0 5.192.305 5.329-2.722l.038-2.646c-.001-2.698.051-3.8-.761-4.615zm-1.111 7.324c.434 0 .786.352.786.786s-.352.786-.786.786-.786-.352-.786-.786.352-.786.786-.786z"/></g><defs><clipPath id="A"><path fill="#fff" transform="matrix(1 0 0 -1 0 14.0002)" d="M0 0h13.104v13.104H0z"/></clipPath></defs></svg>