<svg xmlns="http://www.w3.org/2000/svg" width="12" height="12" fill="#fff" xmlns:v="https://vecta.io/nano"><path d="M.029 0L.023 1.74a11.11 11.11 0 0 1 10.236 10.236l1.74-.006C11.578 5.564 6.435.421.029 0h0zM.025 3.474L.02 5.202a7.69 7.69 0 0 1 6.779 6.779l1.729-.006A9.4 9.4 0 0 0 .025 3.474h0zM.017 6.95L.012 8.69a4.2 4.2 0 0 1 2.144 1.155c.592.593.989 1.332 1.155 2.144l1.74-.006c-.171-1.27-.75-2.438-1.674-3.359S1.287 7.121.017 6.95h0zm-.011 3.555L0 12l1.495-.006a1.57 1.57 0 0 0-.459-1.033 1.56 1.56 0 0 0-1.031-.457h0z"/></svg>