<svg xmlns="http://www.w3.org/2000/svg" width="14" height="14" fill="none" xmlns:v="https://vecta.io/nano"><g clip-path="url(#A)"><path d="M13.104 2.489a5.6 5.6 0 0 1-1.548.424 2.67 2.67 0 0 0 1.182-1.485c-.519.31-1.093.528-1.703.65a2.69 2.69 0 0 0-1.962-.85c-1.487 0-2.685 1.207-2.685 2.687 0 .213.018.418.062.613C4.216 4.42 2.24 3.349.912 1.719c-.232.402-.368.862-.368 1.358a2.69 2.69 0 0 0 1.193 2.233c-.432-.008-.855-.133-1.214-.331v.029a2.7 2.7 0 0 0 2.152 2.64 2.68 2.68 0 0 1-.704.088c-.172 0-.346-.01-.509-.046.348 1.064 1.336 1.846 2.51 1.871a5.4 5.4 0 0 1-3.331 1.146c-.22 0-.432-.01-.643-.037 1.19.767 2.6 1.206 4.121 1.206 4.943 0 7.646-4.095 7.646-7.644 0-.119-.004-.233-.01-.347a5.36 5.36 0 0 0 1.346-1.395z" fill="#fff"/></g><defs><clipPath id="A"><path fill="#fff" d="M0 0h13.104v13.104H0z"/></clipPath></defs></svg>